<svg xmlns="http://www.w3.org/2000/svg" width="682.667" height="682.667" viewBox="0 0 512 512" preserveAspectRatio="xMidYMid meet" xmlns:v="https://vecta.io/nano"><circle r="256" cx="256" cy="256" fill="white"/><path d="M243.8 20.6c-25.9 6.2-49.8 34.1-67.4 78.9-3.9 9.9-4.6 11-6.6 10.7-1.3-.1-6.6-1-11.8-1.8-15.1-2.4-42.5-2.9-54.9-1C65.2 113.2 44 133.8 44 165c0 4.1.6 10.2 1.3 13.6l1.3 6.1-3.8 4.2c-11.1 12.6-10.1 32.4 2.2 43.5 7.3 6.5 17.5 9.6 25.8 7.8l4-.9 6.7 8.3 6.6 8.4-6.6 8.3C56.9 294.8 44.1 323.2 44 347c0 25.4 14.2 44.1 40.4 53.1 13.4 4.7 26.3 6.2 46.6 5.5 9.6-.3 21.8-1.2 27-2l11.8-1.8c2-.3 2.7.8 6.6 10.7 23 58.5 56.8 87.7 91.1 79 8.6-2.2 19.4-7.9 25.9-13.7l5.6-5 5.1 1.2c14.4 3.5 29-3.4 36-17 3.6-6.8 3.4-18.5-.3-26.1-1.5-3-3.8-6.5-5.2-7.8l-2.3-2.2 3.7-9.5c2-5.2 3.9-9.6 4.1-9.8s5.4.5 11.4 1.5c16.1 2.8 44.2 3.5 57.4 1.5 19.4-3 33.5-9.3 44-19.7 26.3-26.1 18-70.5-22.4-120.7l-6.7-8.2 6.3-7.8 6.2-7.7h7.7c6.6-.1 8.6-.5 14.3-3.3 7.5-3.7 10.9-7.3 14.6-15.2 4.8-10.5 2.7-24.6-4.9-32.5l-3-3.1 1.5-6.9c.8-3.9 1.5-10.4 1.5-14.5 0-31.1-21.2-51.8-59.1-57.6-13.2-2-41.3-1.3-57.4 1.5-6 1-11.3 1.6-11.6 1.2-.3-.3-2.3-5.1-4.4-10.6C313.6 41.8 279 12 243.8 20.6zM267.2 35c20.2 6.2 39.5 30.1 54.5 67.4 2.4 6 4.2 11 4 11.2s-6.6 2.2-14.3 4.3c-14.9 4.2-34.6 11.1-47.5 16.6l-7.9 3.4-8.2-3.5c-13.1-5.6-31.7-12.1-47-16.4-7.8-2.2-14.3-4.2-14.5-4.4s1.6-5.2 4-11.2c14.9-36.9 33.5-60.3 53.7-67.1 8.1-2.8 14.9-2.9 23.2-.3zm-109.9 87.5c9.2 1.5 10.7 2 10.2 3.4-3 7.7-11.2 48.4-13 64.8l-.7 6.1-10.1 7.8c-12.6 9.6-24.4 19.9-36.3 31.7-5.1 4.9-9.6 8.7-10.1 8.4s-3-3.2-5.5-6.4l-4.6-5.9 2.1-2.4c7.2-8.8 9.2-22.6 4.8-32.8-3-6.6-11.3-14.4-17.7-16.6-2.6-.9-7.6-1.6-11-1.6h-6.3l-.7-5.6c-1.1-8.9.1-19.2 2.9-25.6 6-13.5 22.3-23.4 44.2-26.8 9.2-1.4 39.4-.5 51.8 1.5zm258.2.4c18 4.8 30 13.3 35.2 24.9 2.8 6.3 4.2 20.4 2.6 27.5l-.8 3.8-8.5.2c-6.5.2-9.5.8-12.7 2.5-6.3 3.3-10.5 7.4-13.9 13.4-2.6 4.8-2.9 6.2-2.9 14.3 0 9.7 1.8 14.9 7.3 20.7l2.5 2.7-4.3 5.6c-2.4 3.1-4.7 5.8-5.2 6.1s-5.8-4.1-11.8-9.9c-10.8-10.5-30-26.9-39.7-34-5-3.6-5.1-3.9-5.8-10-1.8-16-10-57.3-13-64.8-.5-1.3.7-1.8 6.7-2.8 15.5-2.6 20.9-3 38.3-2.6 14.4.2 19.6.7 26 2.4zm-198.4 14.9l16.3 5.9 4.8 2-15.9 8.5c-17.5 9.4-33.6 18.9-45.3 26.7-4.1 2.7-7.5 4.9-7.6 4.8-1-1.2 10.2-54.6 12.2-57.8.5-.8 20.2 4.7 35.5 9.9zm116.7 2.7c4.6 18.1 9.5 44.5 8.4 44.5-.2 0-6.9-4.1-14.8-9-13.3-8.4-35.2-20.8-48.3-27.5l-5.5-2.7 3.2-1.4c14-5.8 52.1-17.7 53.4-16.5.4.3 2 6 3.6 12.6zm-59 21.9c21.5 10.9 37 19.9 56.4 32.8l13.6 9.1.7 6.6c.4 3.6 1 15.3 1.4 25.8.6 19.7-.1 52.5-1.4 64.4l-.7 6.6-13.6 9.1c-19.5 12.9-34.9 21.9-56.4 32.8l-18.8 9.5-18.7-9.5c-21.6-10.9-37-19.9-56.5-32.8l-13.6-9.1-.7-6.6c-.4-3.6-1-15.3-1.4-25.9-.6-19.7.1-52.6 1.4-64.3l.7-6.6 13.6-9c20.5-13.7 30.6-19.6 53.7-31.5l21.3-10.8c.2 0 8.7 4.2 19 9.4zM74.2 195.2c9.6 5.4 11.3 18.5 3.4 26.4-6.9 6.9-17.5 6.6-24.1-.7-4-4.5-4.9-7.3-4.2-13.6 1.3-11.8 14.2-18.1 24.9-12.1zm378.7-.1c9.8 5.5 11.6 18.6 3.7 26.5-8.1 8.1-21.7 5.7-27.2-4.8-2.8-5.3-1.4-13.9 2.9-18.7 4.9-5.3 14.1-6.7 20.6-3zm-301.3 26.8c-.9 7.8-.9 60.5 0 68.4l.7 6.1-4.9-3.9c-10.1-8.1-25.1-21.6-32.4-29l-7.5-7.6 11.5-11.2c9.8-9.6 31.7-28.7 32.9-28.7.2 0 .1 2.7-.3 5.9zm227.9 10.2c5.5 4.8 13.4 12.1 17.5 16.3l7.4 7.6-7.4 7.6c-7.3 7.3-22.3 20.8-32.4 28.9l-4.9 4 .7-6.7c.9-8.8.9-60.4 0-68.3l-.7-6 4.9 4c2.7 2.1 9.4 7.8 14.9 12.6zm-270.1 45.6c11.2 10.8 29.8 26.6 39.3 33.6 5 3.6 5.1 3.9 5.8 10 1.8 16.4 10 57.1 13 64.8.5 1.4-1.1 1.9-10.7 3.5-16.9 2.8-49.2 2.6-60.3-.4-18.1-5-29.8-13.3-35.3-25-2.5-5.2-2.7-6.7-2.6-17.7 0-10.9.3-12.9 3.3-21.5 3.4-10.1 10.8-24.7 17.1-33.9 5.1-7.6 17.9-24.1 18.6-24.1.4 0 5.6 4.8 11.8 10.7zm315.7 2.6c36.3 47.9 38.5 87.7 5.7 103.2-13.9 6.6-20.7 7.8-43.8 7.9-15.7.1-23.2-.3-31.8-1.8-9.6-1.6-11.2-2.1-10.7-3.5 3-7.6 11.3-48.6 13.1-64.9.6-6.1.8-6.3 5.8-10 9.8-7.1 29-23.5 39.5-33.8 5.8-5.7 11.1-10.2 11.6-10 .6.1 5.3 5.9 10.6 12.9zm-236.6 58c8.3 5.2 22.8 13.6 32.4 18.7l17.3 9.3-4.8 2c-16.2 6.4-51.1 17.1-51.8 15.8-1.5-2.4-9.4-38.2-11.1-50.1-.4-2.5-.9-5.4-1.2-6.5-.5-1.8-.5-1.9 1.8-.2 1.3.9 9.2 5.9 17.4 11zm152.8-3.1c-2.3 15-9.3 46.1-10.9 48.9-.7 1.3-36-9.5-51.8-15.8l-4.8-2 17-9.1c17.2-9.2 27.9-15.5 42.7-25 4.4-2.9 8.3-5.2 8.6-5.2s0 3.7-.8 8.2zM262.8 377c13.4 5.7 31.7 12.1 47.1 16.6l15.8 4.8c.1.1-1 3.6-2.6 7.6l-2.8 7.5h-7.9c-6.6 0-8.8.5-13.6 2.8-6.5 3.2-12.1 9-15.2 15.6-1.6 3.5-2.1 6.5-2 12.6 0 6.9.4 8.8 2.9 13.5 1.7 3 3.1 5.8 3.3 6.2s-2.9 3-6.9 5.7c-20.2 14.2-39.9 11.4-59.5-8.4-7-7.1-16.8-21.4-22.6-32.9-4.6-9.1-13-29.7-12.4-30.3.2-.2 4.6-1.5 9.7-2.9 16-4.2 51.9-17.1 59.5-21.3.1-.1 3.3 1.2 7.2 2.9zm54.2 51c4.1 1.1 9.4 6.1 10.9 10.3 2.8 7.3-.5 16.2-7.3 20.2-17.5 10.2-34.6-12.9-19.9-26.8 4.6-4.3 9.9-5.5 16.3-3.7zm-71.5-226c-19.8 4.4-35.2 18-41.7 36.8-3.2 9.5-3.2 24.9 0 34.4 5.6 16.4 18 28.8 34.8 35 8.5 3.1 26.3 3.1 34.8 0 16.8-6.2 29.2-18.6 34.8-35 3.2-9.5 3.2-24.9 0-34.4-5.7-16.4-18.3-29.1-34.8-34.9-6.7-2.3-21.5-3.3-27.9-1.9zm20.9 14.5c7.7 2 13.3 5.4 19.3 11.8 22.4 23.7 9.1 62.5-23.4 68-12.5 2.2-24.6-1.7-34.4-11-10-9.5-14.4-22.6-12.2-35.8 1.5-8.6 4.6-14.9 10.6-21.2 10.8-11.5 25.1-15.7 40.1-11.8zm8.8 34.8c-1.2 1.3-2.2 3.6-2.2 5 0 4.4-2.4 8.9-7.4 13.5-5.3 5-5.9 8-2.1 11.7 3.2 3.3 5.3 3.1 10.3-.5 10.6-7.7 16.7-24.4 10.9-29.8-3-2.8-6.8-2.8-9.5.1z"/></svg>